<?xml version="1.0" encoding="UTF-8"?>
<svg id="Camada_2" data-name="Camada 2" xmlns="http://www.w3.org/2000/svg" viewBox="0 0 188.71 25.1">
  <defs>
    <style>
      .cls-1 {
        fill: #fe4250;
      }

      .cls-1,
      .cls-2 {
        stroke-width: 0px;
      }

      .cls-2 {
        fill: #fff;
      }
    </style>
  </defs>
  <g id="Camada_1-2" data-name="Camada 1">
    <g>
      <path class="cls-2"
        d="M78.31,16.92c0,2.28-.02,4.55.01,6.83,0,.6-.13.84-.78.82-1.56-.05-3.12-.06-4.68,0-.74.03-.95-.19-.94-.93.04-3.6.07-7.19,0-10.79-.09-4.35-3.98-7.21-8.08-6.04-2.6.75-4.44,3.12-4.46,5.87-.03,3.64-.03,7.27.01,10.91,0,.79-.2,1.01-.99.98-1.52-.06-3.04-.04-4.56,0-.61.02-.83-.14-.82-.79.04-3.88-.05-7.75.05-11.63.14-5.13,2.71-8.83,7.3-10.91,4.58-2.07,9.08-1.56,13.07,1.58,1,.79,1.44.7,2.39-.04,3.97-3.08,8.43-3.6,12.97-1.58,4.61,2.05,7.19,5.77,7.38,10.87.15,3.91.04,7.83.07,11.74,0,.59-.2.75-.76.74-1.6-.03-3.2-.05-4.8,0-.71.02-.86-.23-.85-.89.03-3.64.05-7.27,0-10.91-.07-4.33-3.95-7.15-8.11-5.96-2.31.66-3.41,2.11-3.41,4.47,0,1.88,0,3.76,0,5.63Z" />
      <path class="cls-2"
        d="M115.5,14.48c-2.72,0-5.43,0-8.15.01-.32,0-.79-.21-.96.18-.15.34.18.67.36.97,1.84,3.04,6.35,3.89,9.38,1.7.73-.53,1.05-.52,1.55.21.81,1.18,1.7,2.32,2.63,3.41.49.57.43.87-.15,1.31-4.14,3.12-8.66,3.69-13.31,1.59-4.65-2.1-7.14-5.87-7.24-11.05-.13-6.14,4.22-11.52,10.05-12.49,6.68-1.11,12.67,2.34,14.57,8.41.49,1.58.66,3.19.55,4.84-.05.67-.25.94-1.01.92-2.76-.06-5.51-.02-8.27-.02ZM117.65,9.62c-1.42-2.39-3.48-3.21-6.01-3.04-2.11.14-3.76,1.04-4.88,3.04h10.88Z" />
      <path class="cls-2"
        d="M168.49,14.48c-2.76,0-5.51.04-8.27-.02-1.04-.02-.92.34-.55,1.01,1.74,3.16,6.41,4.12,9.52,1.85.78-.57,1.07-.4,1.54.27.81,1.14,1.67,2.24,2.56,3.31.48.57.52.91-.13,1.4-4.15,3.09-8.67,3.66-13.32,1.55-4.64-2.11-7.12-5.89-7.21-11.07-.11-6.02,3.93-11.14,9.73-12.39,5.99-1.3,11.95,1.62,14.4,7.05.85,1.89,1.14,3.88,1.05,5.95-.03.78-.22,1.17-1.18,1.14-2.71-.09-5.43-.03-8.15-.03ZM159.75,9.62h10.92c-1.27-2.13-3.05-3.04-5.37-3.06-2.36-.02-4.21.85-5.55,3.06Z" />
      <path class="cls-2"
        d="M37.18.09c7.05.02,12.59,5.55,12.54,12.52-.05,6.97-5.62,12.43-12.67,12.41-7.15-.02-12.58-5.46-12.55-12.59.03-6.98,5.57-12.37,12.68-12.35ZM37,18.54c3.54.03,6.3-2.57,6.32-5.96.02-3.31-2.74-6-6.16-6.01-3.48-.01-6.29,2.58-6.34,5.84-.05,3.36,2.71,6.1,6.18,6.13Z" />
      <path class="cls-2"
        d="M12.55,25.02c-6.34-.03-11.79-4.71-12.46-10.72C-.65,7.67,3.23,1.93,9.56.45c3.86-.9,7.44-.21,10.67,2.18.63.47.82.78.24,1.46-.93,1.09-1.78,2.26-2.59,3.44-.45.65-.71.78-1.44.24-3.5-2.6-8.74-.9-9.87,3.14-.68,2.45.19,4.88,2.31,6.44,2.1,1.54,5.31,1.69,7.42.11.94-.7,1.33-.47,1.91.31.76,1.03,1.56,2.03,2.46,2.94.74.74.45,1.12-.22,1.64-2.26,1.74-4.95,2.67-7.91,2.66Z" />
      <path class="cls-2"
        d="M128.15,10.63c.05-3.22,2.41-7.02,6.94-9.23,4.55-2.22,9.05-1.77,13.24,1.21.72.51.78.87.2,1.55-.93,1.1-1.77,2.26-2.59,3.45-.44.63-.71.66-1.36.18-3.51-2.6-8.74-.93-9.89,3.09-.71,2.48.2,4.97,2.38,6.52,2.12,1.51,5.31,1.59,7.43.02.82-.61,1.18-.52,1.74.24.8,1.09,1.68,2.14,2.61,3.13.6.64.49.98-.16,1.47-4.23,3.17-8.8,3.63-13.55,1.5-4.42-1.97-7-6.29-7-13.14Z" />
      <path class="cls-1"
        d="M181.18,20.72c-.01-2.17,1.58-3.82,3.71-3.85,2.1-.03,3.8,1.65,3.82,3.76.02,2.23-1.62,3.93-3.78,3.91-2.12-.01-3.74-1.66-3.75-3.82Z" />
    </g>
  </g>
</svg>