<?xml version="1.0" standalone="no"?>
<!DOCTYPE svg PUBLIC "-//W3C//DTD SVG 20010904//EN" "http://www.w3.org/TR/2001/REC-SVG-20010904/DTD/svg10.dtd">
<svg version="1.0" xmlns="http://www.w3.org/2000/svg" width="416.000000pt" height="864.000000pt"
  viewBox="0 0 416.000000 864.000000" preserveAspectRatio="xMidYMid meet">

  <g transform="translate(0.000000,864.000000) scale(0.100000,-0.100000)" fill="#ff3b4c" stroke="none">
    <path d="M3900 8623 c-19 -1 -87 -8 -150 -14 -1104 -103 -2173 -714 -2860
-1634 -516 -691 -805 -1464 -871 -2335 -14 -193 -6 -623 15 -810 138 -1178
701 -2206 1603 -2929 499 -400 1098 -679 1737 -811 195 -40 567 -80 749 -80
l37 0 0 328 0 329 -147 7 c-392 18 -771 102 -1125 247 -1042 429 -1838 1366
-2112 2489 -84 344 -110 593 -103 985 5 292 16 403 58 630 243 1308 1170 2386
2395 2785 298 97 663 160 932 160 l102 0 0 330 0 330 -112 -2 c-62 0 -129 -3
-148 -5z" />
  </g>
</svg>