<?xml version="1.0" standalone="no"?>
<!DOCTYPE svg PUBLIC "-//W3C//DTD SVG 20010904//EN" "http://www.w3.org/TR/2001/REC-SVG-20010904/DTD/svg10.dtd">
<svg version="1.0" xmlns="http://www.w3.org/2000/svg" width="555.000000pt" height="146.000000pt"
  viewBox="0 0 1110.000000 292.000000" preserveAspectRatio="xMidYMid meet">

  <g transform="translate(0.000000,292.000000) scale(0.09000,-0.08000)" fill="#ff3b4c" stroke="none">
    <path
      d="M2590 2902 c-68 -1 -129 -7 -134 -12 -6 -6 -36 -10 -67 -10 -157 0-634 -158 -929 -308 -171 -86 -318 -187 -490 -334 -240 -206 -384 -372 -561-643 -97 -149 -172 -313 -255 -560 -76 -224 -114 -374 -114 -449 0 -30 -4 -56-10 -58 -6 -2 -12 -107 -16 -260 l-7 -258 635 0 635 0 6 163 c12 332 83 569 246 817 122 186 249 305 476 443 151 91 444 184 656 208 290 32 611 -32 898-178 201 -103 311 -172 536 -338 290 -214 359 -258 429 -276 98 -24 178 32 297 213 227 341 367 557 382 589 29 62 31 111 9 160 -12 24 -29 53 -39 64 -87 98 -605 462 -866 609 -177 100 -294 154 -492 228 -331 124 -483 168 -586 168 -36 0 -69 4 -75 10 -10 10 -342 17 -564 12z" />
    <path
      d="M7995 2903 c-55 -2 -104 -8 -109 -13 -6 -6 -32 -10 -59 -10 -160 0-700 -203 -977 -367 -204 -120 -404 -279 -634 -503 -216 -211 -499 -556 -711-870 -71 -106 -165 -243 -207 -304 -42 -61 -147 -214 -232 -341 -85 -126 -189 -279 -231 -340 -42 -60 -81 -118 -86 -127 -9 -17 30 -18 753 -18 l763 1 68 102 c38 56 83 122 100 147 18 25 59 83 92 130 221 317 477 641 615 780 262 264 565 416 939 470 119 18 399 7 516 -19 331 -73 578 -208 793 -431 82 -84 212 -256 253 -334 18 -34 35 -63 39 -66 3 -3 24 -52 47 -110 78 -200 111 -357 115 -542 l3 -128 623 0 624 0 -5 278 c-4 261 -19 412 -39 412 -4 0 -8 16 -8 35 0 59 -147 460 -227 619 -58 116 -173 293 -277 426 -61 79 -225 265 -263 300 -151 136 -369 312 -478 385 -266 178 -873 415 -1063 415 -27 0 -52 4 -58 9 -10 10 -514 21 -679 14z" />
  </g>
</svg>