<svg id="visual" viewBox="0 0 900 600" width="900" height="600" xmlns="http://www.w3.org/2000/svg"
  xmlns:xlink="http://www.w3.org/1999/xlink" version="1.1">
  <rect x="0" y="0" width="900" height="600" fill="#ffffd7"></rect>
  <path
    d="M0 426L21.5 406.7C43 387.3 86 348.7 128.8 333.5C171.7 318.3 214.3 326.7 257.2 341C300 355.3 343 375.7 385.8 388.5C428.7 401.3 471.3 406.7 514.2 402.5C557 398.3 600 384.7 642.8 367C685.7 349.3 728.3 327.7 771.2 331.3C814 335 857 364 878.5 378.5L900 393L900 601L878.5 601C857 601 814 601 771.2 601C728.3 601 685.7 601 642.8 601C600 601 557 601 514.2 601C471.3 601 428.7 601 385.8 601C343 601 300 601 257.2 601C214.3 601 171.7 601 128.8 601C86 601 43 601 21.5 601L0 601Z"
    fill="#ff3b4c"></path>
  <path
    d="M0 444L21.5 447.3C43 450.7 86 457.3 128.8 458.2C171.7 459 214.3 454 257.2 447C300 440 343 431 385.8 419C428.7 407 471.3 392 514.2 396.2C557 400.3 600 423.7 642.8 434.8C685.7 446 728.3 445 771.2 441.5C814 438 857 432 878.5 429L900 426L900 601L878.5 601C857 601 814 601 771.2 601C728.3 601 685.7 601 642.8 601C600 601 557 601 514.2 601C471.3 601 428.7 601 385.8 601C343 601 300 601 257.2 601C214.3 601 171.7 601 128.8 601C86 601 43 601 21.5 601L0 601Z"
    fill="#a93338"></path>
  <path
    d="M0 433L21.5 437.5C43 442 86 451 128.8 462C171.7 473 214.3 486 257.2 495.2C300 504.3 343 509.7 385.8 504.2C428.7 498.7 471.3 482.3 514.2 479.5C557 476.7 600 487.3 642.8 483.8C685.7 480.3 728.3 462.7 771.2 465.7C814 468.7 857 492.3 878.5 504.2L900 516L900 601L878.5 601C857 601 814 601 771.2 601C728.3 601 685.7 601 642.8 601C600 601 557 601 514.2 601C471.3 601 428.7 601 385.8 601C343 601 300 601 257.2 601C214.3 601 171.7 601 128.8 601C86 601 43 601 21.5 601L0 601Z"
    fill="#5a2625"></path>
  <path
    d="M0 516L21.5 513.7C43 511.3 86 506.7 128.8 505.7C171.7 504.7 214.3 507.3 257.2 507C300 506.7 343 503.3 385.8 505.8C428.7 508.3 471.3 516.7 514.2 516.7C557 516.7 600 508.3 642.8 505.7C685.7 503 728.3 506 771.2 514.5C814 523 857 537 878.5 544L900 551L900 601L878.5 601C857 601 814 601 771.2 601C728.3 601 685.7 601 642.8 601C600 601 557 601 514.2 601C471.3 601 428.7 601 385.8 601C343 601 300 601 257.2 601C214.3 601 171.7 601 128.8 601C86 601 43 601 21.5 601L0 601Z"
    fill="#121212"></path>
</svg>