<svg id="visual" viewBox="0 0 1440 540" width="1440" height="540" xmlns="http://www.w3.org/2000/svg" xmlns:xlink="http://www.w3.org/1999/xlink" version="1.1"><rect x="0" y="0" width="1440" height="540" fill="#ffffd7"></rect><path d="M0 391L26.7 393.7C53.3 396.3 106.7 401.7 160 399.7C213.3 397.7 266.7 388.3 320 389.2C373.3 390 426.7 401 480 406.3C533.3 411.7 586.7 411.3 640 401.7C693.3 392 746.7 373 800 365.3C853.3 357.7 906.7 361.3 960 367.8C1013.3 374.3 1066.7 383.7 1120 392.2C1173.3 400.7 1226.7 408.3 1280 410.8C1333.3 413.3 1386.7 410.7 1413.3 409.3L1440 408L1440 541L1413.3 541C1386.7 541 1333.3 541 1280 541C1226.7 541 1173.3 541 1120 541C1066.7 541 1013.3 541 960 541C906.7 541 853.3 541 800 541C746.7 541 693.3 541 640 541C586.7 541 533.3 541 480 541C426.7 541 373.3 541 320 541C266.7 541 213.3 541 160 541C106.7 541 53.3 541 26.7 541L0 541Z" fill="#ff3b4c"></path><path d="M0 415L26.7 417.3C53.3 419.7 106.7 424.3 160 422.2C213.3 420 266.7 411 320 413.5C373.3 416 426.7 430 480 430.5C533.3 431 586.7 418 640 408.7C693.3 399.3 746.7 393.7 800 397.7C853.3 401.7 906.7 415.3 960 421.7C1013.3 428 1066.7 427 1120 425.3C1173.3 423.7 1226.7 421.3 1280 414.8C1333.3 408.3 1386.7 397.7 1413.3 392.3L1440 387L1440 541L1413.3 541C1386.7 541 1333.3 541 1280 541C1226.7 541 1173.3 541 1120 541C1066.7 541 1013.3 541 960 541C906.7 541 853.3 541 800 541C746.7 541 693.3 541 640 541C586.7 541 533.3 541 480 541C426.7 541 373.3 541 320 541C266.7 541 213.3 541 160 541C106.7 541 53.3 541 26.7 541L0 541Z" fill="#be363d"></path><path d="M0 455L26.7 454.3C53.3 453.7 106.7 452.3 160 455.2C213.3 458 266.7 465 320 460.3C373.3 455.7 426.7 439.3 480 435.8C533.3 432.3 586.7 441.7 640 448.7C693.3 455.7 746.7 460.3 800 463.5C853.3 466.7 906.7 468.3 960 462.7C1013.3 457 1066.7 444 1120 442.8C1173.3 441.7 1226.7 452.3 1280 457.7C1333.3 463 1386.7 463 1413.3 463L1440 463L1440 541L1413.3 541C1386.7 541 1333.3 541 1280 541C1226.7 541 1173.3 541 1120 541C1066.7 541 1013.3 541 960 541C906.7 541 853.3 541 800 541C746.7 541 693.3 541 640 541C586.7 541 533.3 541 480 541C426.7 541 373.3 541 320 541C266.7 541 213.3 541 160 541C106.7 541 53.3 541 26.7 541L0 541Z" fill="#812d2e"></path><path d="M0 466L26.7 469.8C53.3 473.7 106.7 481.3 160 486.8C213.3 492.3 266.7 495.7 320 493.5C373.3 491.3 426.7 483.7 480 482.8C533.3 482 586.7 488 640 489.7C693.3 491.3 746.7 488.7 800 489.7C853.3 490.7 906.7 495.3 960 496.3C1013.3 497.3 1066.7 494.7 1120 492.3C1173.3 490 1226.7 488 1280 483.5C1333.3 479 1386.7 472 1413.3 468.5L1440 465L1440 541L1413.3 541C1386.7 541 1333.3 541 1280 541C1226.7 541 1173.3 541 1120 541C1066.7 541 1013.3 541 960 541C906.7 541 853.3 541 800 541C746.7 541 693.3 541 640 541C586.7 541 533.3 541 480 541C426.7 541 373.3 541 320 541C266.7 541 213.3 541 160 541C106.7 541 53.3 541 26.7 541L0 541Z" fill="#482120"></path><path d="M0 519L26.7 519.2C53.3 519.3 106.7 519.7 160 517.3C213.3 515 266.7 510 320 507C373.3 504 426.7 503 480 499.8C533.3 496.7 586.7 491.3 640 488.7C693.3 486 746.7 486 800 491.8C853.3 497.7 906.7 509.3 960 509.7C1013.3 510 1066.7 499 1120 497.3C1173.3 495.7 1226.7 503.3 1280 508.8C1333.3 514.3 1386.7 517.7 1413.3 519.3L1440 521L1440 541L1413.3 541C1386.7 541 1333.3 541 1280 541C1226.7 541 1173.3 541 1120 541C1066.7 541 1013.3 541 960 541C906.7 541 853.3 541 800 541C746.7 541 693.3 541 640 541C586.7 541 533.3 541 480 541C426.7 541 373.3 541 320 541C266.7 541 213.3 541 160 541C106.7 541 53.3 541 26.7 541L0 541Z" fill="#121212"></path></svg>