<svg id="visual" viewBox="0 0 450 500" width="450" height="500" xmlns="http://www.w3.org/2000/svg" xmlns:xlink="http://www.w3.org/1999/xlink" version="1.1"><rect x="0" y="0" width="450" height="500" fill="#ffffd7"></rect><path d="M0 362L8.3 364.3C16.7 366.7 33.3 371.3 50 369.5C66.7 367.7 83.3 359.3 100 360.3C116.7 361.3 133.3 371.7 150 376.7C166.7 381.7 183.3 381.3 200 372.3C216.7 363.3 233.3 345.7 250 338.5C266.7 331.3 283.3 334.7 300 340.7C316.7 346.7 333.3 355.3 350 363.2C366.7 371 383.3 378 400 380.3C416.7 382.7 433.3 380.3 441.7 379.2L450 378L450 501L441.7 501C433.3 501 416.7 501 400 501C383.3 501 366.7 501 350 501C333.3 501 316.7 501 300 501C283.3 501 266.7 501 250 501C233.3 501 216.7 501 200 501C183.3 501 166.7 501 150 501C133.3 501 116.7 501 100 501C83.3 501 66.7 501 50 501C33.3 501 16.7 501 8.3 501L0 501Z" fill="#ff3b4c"></path><path d="M0 384L8.3 386.2C16.7 388.3 33.3 392.7 50 390.7C66.7 388.7 83.3 380.3 100 382.7C116.7 385 133.3 398 150 398.5C166.7 399 183.3 387 200 378.3C216.7 369.7 233.3 364.3 250 368C266.7 371.7 283.3 384.3 300 390.2C316.7 396 333.3 395 350 393.5C366.7 392 383.3 390 400 384C416.7 378 433.3 368 441.7 363L450 358L450 501L441.7 501C433.3 501 416.7 501 400 501C383.3 501 366.7 501 350 501C333.3 501 316.7 501 300 501C283.3 501 266.7 501 250 501C233.3 501 216.7 501 200 501C183.3 501 166.7 501 150 501C133.3 501 116.7 501 100 501C83.3 501 66.7 501 50 501C33.3 501 16.7 501 8.3 501L0 501Z" fill="#be363d"></path><path d="M0 421L8.3 420.5C16.7 420 33.3 419 50 421.7C66.7 424.3 83.3 430.7 100 426.3C116.7 422 133.3 407 150 403.8C166.7 400.7 183.3 409.3 200 415.7C216.7 422 233.3 426 250 428.8C266.7 431.7 283.3 433.3 300 428.2C316.7 423 333.3 411 350 410C366.7 409 383.3 419 400 424C416.7 429 433.3 429 441.7 429L450 429L450 501L441.7 501C433.3 501 416.7 501 400 501C383.3 501 366.7 501 350 501C333.3 501 316.7 501 300 501C283.3 501 266.7 501 250 501C233.3 501 216.7 501 200 501C183.3 501 166.7 501 150 501C133.3 501 116.7 501 100 501C83.3 501 66.7 501 50 501C33.3 501 16.7 501 8.3 501L0 501Z" fill="#812d2e"></path><path d="M0 432L8.3 435.5C16.7 439 33.3 446 50 451C66.7 456 83.3 459 100 457C116.7 455 133.3 448 150 447.2C166.7 446.3 183.3 451.7 200 453.2C216.7 454.7 233.3 452.3 250 453.3C266.7 454.3 283.3 458.7 300 459.7C316.7 460.7 333.3 458.3 350 456.2C366.7 454 383.3 452 400 447.8C416.7 443.7 433.3 437.3 441.7 434.2L450 431L450 501L441.7 501C433.3 501 416.7 501 400 501C383.3 501 366.7 501 350 501C333.3 501 316.7 501 300 501C283.3 501 266.7 501 250 501C233.3 501 216.7 501 200 501C183.3 501 166.7 501 150 501C133.3 501 116.7 501 100 501C83.3 501 66.7 501 50 501C33.3 501 16.7 501 8.3 501L0 501Z" fill="#482120"></path><path d="M0 480L8.3 480.3C16.7 480.7 33.3 481.3 50 479.3C66.7 477.3 83.3 472.7 100 469.8C116.7 467 133.3 466 150 463C166.7 460 183.3 455 200 452.5C216.7 450 233.3 450 250 455.3C266.7 460.7 283.3 471.3 300 471.5C316.7 471.7 333.3 461.3 350 459.8C366.7 458.3 383.3 465.7 400 471C416.7 476.3 433.3 479.7 441.7 481.3L450 483L450 501L441.7 501C433.3 501 416.7 501 400 501C383.3 501 366.7 501 350 501C333.3 501 316.7 501 300 501C283.3 501 266.7 501 250 501C233.3 501 216.7 501 200 501C183.3 501 166.7 501 150 501C133.3 501 116.7 501 100 501C83.3 501 66.7 501 50 501C33.3 501 16.7 501 8.3 501L0 501Z" fill="#121212"></path></svg>