<svg id="visual" viewBox="0 0 450 900" width="450" height="900" xmlns="http://www.w3.org/2000/svg" xmlns:xlink="http://www.w3.org/1999/xlink" version="1.1"><rect x="0" y="0" width="450" height="900" fill="#ffffd7"></rect><path d="M0 514L6.3 513.8C12.7 513.7 25.3 513.3 37.8 507.2C50.3 501 62.7 489 75.2 481.3C87.7 473.7 100.3 470.3 112.8 484.5C125.3 498.7 137.7 530.3 150.2 545.8C162.7 561.3 175.3 560.7 187.8 548.8C200.3 537 212.7 514 225.2 507.5C237.7 501 250.3 511 262.8 508.2C275.3 505.3 287.7 489.7 300.2 479.8C312.7 470 325.3 466 337.8 474.2C350.3 482.3 362.7 502.7 375.2 514.2C387.7 525.7 400.3 528.3 412.8 526C425.3 523.7 437.7 516.3 443.8 512.7L450 509L450 901L443.8 901C437.7 901 425.3 901 412.8 901C400.3 901 387.7 901 375.2 901C362.7 901 350.3 901 337.8 901C325.3 901 312.7 901 300.2 901C287.7 901 275.3 901 262.8 901C250.3 901 237.7 901 225.2 901C212.7 901 200.3 901 187.8 901C175.3 901 162.7 901 150.2 901C137.7 901 125.3 901 112.8 901C100.3 901 87.7 901 75.2 901C62.7 901 50.3 901 37.8 901C25.3 901 12.7 901 6.3 901L0 901Z" fill="#ff3b4c"></path><path d="M0 616L6.3 608.3C12.7 600.7 25.3 585.3 37.8 588.3C50.3 591.3 62.7 612.7 75.2 628.2C87.7 643.7 100.3 653.3 112.8 645.2C125.3 637 137.7 611 150.2 593.2C162.7 575.3 175.3 565.7 187.8 564.7C200.3 563.7 212.7 571.3 225.2 574.2C237.7 577 250.3 575 262.8 588.8C275.3 602.7 287.7 632.3 300.2 646.8C312.7 661.3 325.3 660.7 337.8 652C350.3 643.3 362.7 626.7 375.2 623.5C387.7 620.3 400.3 630.7 412.8 623.7C425.3 616.7 437.7 592.3 443.8 580.2L450 568L450 901L443.8 901C437.7 901 425.3 901 412.8 901C400.3 901 387.7 901 375.2 901C362.7 901 350.3 901 337.8 901C325.3 901 312.7 901 300.2 901C287.7 901 275.3 901 262.8 901C250.3 901 237.7 901 225.2 901C212.7 901 200.3 901 187.8 901C175.3 901 162.7 901 150.2 901C137.7 901 125.3 901 112.8 901C100.3 901 87.7 901 75.2 901C62.7 901 50.3 901 37.8 901C25.3 901 12.7 901 6.3 901L0 901Z" fill="#a93338"></path><path d="M0 679L6.3 683.8C12.7 688.7 25.3 698.3 37.8 694.7C50.3 691 62.7 674 75.2 666.3C87.7 658.7 100.3 660.3 112.8 665.8C125.3 671.3 137.7 680.7 150.2 679.7C162.7 678.7 175.3 667.3 187.8 675.2C200.3 683 212.7 710 225.2 718C237.7 726 250.3 715 262.8 702C275.3 689 287.7 674 300.2 674.7C312.7 675.3 325.3 691.7 337.8 700.8C350.3 710 362.7 712 375.2 715.5C387.7 719 400.3 724 412.8 714C425.3 704 437.7 679 443.8 666.5L450 654L450 901L443.8 901C437.7 901 425.3 901 412.8 901C400.3 901 387.7 901 375.2 901C362.7 901 350.3 901 337.8 901C325.3 901 312.7 901 300.2 901C287.7 901 275.3 901 262.8 901C250.3 901 237.7 901 225.2 901C212.7 901 200.3 901 187.8 901C175.3 901 162.7 901 150.2 901C137.7 901 125.3 901 112.8 901C100.3 901 87.7 901 75.2 901C62.7 901 50.3 901 37.8 901C25.3 901 12.7 901 6.3 901L0 901Z" fill="#5a2625"></path><path d="M0 811L6.3 803C12.7 795 25.3 779 37.8 770C50.3 761 62.7 759 75.2 767.3C87.7 775.7 100.3 794.3 112.8 802.3C125.3 810.3 137.7 807.7 150.2 811.2C162.7 814.7 175.3 824.3 187.8 815.5C200.3 806.7 212.7 779.3 225.2 775.3C237.7 771.3 250.3 790.7 262.8 800.5C275.3 810.3 287.7 810.7 300.2 804.7C312.7 798.7 325.3 786.3 337.8 780.3C350.3 774.3 362.7 774.7 375.2 781C387.7 787.3 400.3 799.7 412.8 796.5C425.3 793.3 437.7 774.7 443.8 765.3L450 756L450 901L443.8 901C437.7 901 425.3 901 412.8 901C400.3 901 387.7 901 375.2 901C362.7 901 350.3 901 337.8 901C325.3 901 312.7 901 300.2 901C287.7 901 275.3 901 262.8 901C250.3 901 237.7 901 225.2 901C212.7 901 200.3 901 187.8 901C175.3 901 162.7 901 150.2 901C137.7 901 125.3 901 112.8 901C100.3 901 87.7 901 75.2 901C62.7 901 50.3 901 37.8 901C25.3 901 12.7 901 6.3 901L0 901Z" fill="#121212"></path></svg>