<?xml version="1.0" encoding="UTF-8"?>
<svg id="Camada_2" data-name="Camada 2" xmlns="http://www.w3.org/2000/svg" viewBox="0 0 426.36 213.56">
  <defs>
    <style>
      .cls-1 {
        fill: #ff404f;
        stroke-width: 0px;
      }
    </style>
  </defs>
  <g id="Camada_1-2" data-name="Camada 1">
    <path class="cls-1"
      d="M250.88,77c-7.74-11.61-15.48-23.22-23.74-35.62,7.91-5.84,15.39-11.91,23.4-17.18C270.38,11.15,291.57,1.15,315.81.3c50.66-1.77,101.95,30.88,109.51,89.22,7.64,58.98-27.17,109.41-85.32,121.68-32.37,6.83-61.7-1.41-87.61-21.89-17.22-13.62-30.06-31.02-42.35-48.93-15.36-22.38-30.15-45.19-46.51-66.81-12.99-17.18-30.07-29.38-52.73-30.7-44.01-2.57-77.05,38.35-66.26,81.55,6.42,25.69,27.57,41.86,53.55,45.48,22.89,3.2,41.02-7.19,58.68-19.21,6.3-4.29,12.04-9.4,18.56-14.55,7.87,11.73,15.71,23.43,24.11,35.96-8.07,5.97-15.8,12.26-24.08,17.71-19.13,12.6-39.57,22.32-62.9,23.33-52.97,2.29-104.32-31.27-111.42-89.8C-3.65,84.72,7.36,51.69,37.22,26.18c42.45-36.25,102.1-34.59,143.42,3.31,14.36,13.17,25.72,28.76,36.63,44.75,14.45,21.18,28.57,42.62,43.77,63.26,10.49,14.24,23.8,25.56,41.41,30.73,41.21,12.09,83.66-21.52,81.28-64.43-1.74-31.35-18.32-51.23-48.65-59.02-21.09-5.42-39.48,1.21-56.76,12.28-9.35,5.99-18.02,13.03-27.45,19.94Z" />
  </g>
</svg>